<svg xmlns="http://www.w3.org/2000/svg" width="71" height="71" viewBox="0 0 71 71">
  <g id="Grupo_239" data-name="Grupo 239" transform="translate(-152 -685)">
    <g id="Trazado_128" data-name="Trazado 128" transform="translate(152 685)" fill="none">
      <path d="M35.5,0A35.5,35.5,0,1,1,0,35.5,35.5,35.5,0,0,1,35.5,0Z" stroke="none"/>
      <path d="M 35.5 3 C 31.11120986938477 3 26.85528182983398 3.858879089355469 22.85046005249023 5.552780151367188 C 18.98073959350586 7.189529418945312 15.50474166870117 9.533317565917969 12.51903533935547 12.51903533935547 C 9.533317565917969 15.50474166870117 7.189529418945312 18.98073959350586 5.552780151367188 22.85046005249023 C 3.858879089355469 26.85528182983398 3 31.11120986938477 3 35.5 C 3 39.88878631591797 3.858879089355469 44.14471817016602 5.552780151367188 48.14954376220703 C 7.189529418945312 52.01925659179688 9.533317565917969 55.49525833129883 12.51903533935547 58.48096466064453 C 15.50474166870117 61.46668243408203 18.98073959350586 63.81047058105469 22.85046005249023 65.44721984863281 C 26.85528182983398 67.14112091064453 31.11120986938477 68 35.5 68 C 39.88878631591797 68 44.14471817016602 67.14112091064453 48.14954376220703 65.44721984863281 C 52.01925659179688 63.81047058105469 55.49525833129883 61.46668243408203 58.48096466064453 58.48096466064453 C 61.46668243408203 55.49525833129883 63.81047058105469 52.01925659179688 65.44721984863281 48.14954376220703 C 67.14112091064453 44.14471817016602 68 39.88878631591797 68 35.5 C 68 31.11120986938477 67.14112091064453 26.85528182983398 65.44721984863281 22.85046005249023 C 63.81047058105469 18.98073959350586 61.46668243408203 15.50474166870117 58.48096466064453 12.51903533935547 C 55.49525833129883 9.533317565917969 52.01925659179688 7.189529418945312 48.14954376220703 5.552780151367188 C 44.14471817016602 3.858879089355469 39.88878631591797 3 35.5 3 M 35.5 0 C 55.10610580444336 0 71 15.89389419555664 71 35.5 C 71 55.10610580444336 55.10610580444336 71 35.5 71 C 15.89389419555664 71 0 55.10610580444336 0 35.5 C 0 15.89389419555664 15.89389419555664 0 35.5 0 Z" stroke="none" fill="#fff"/>
    </g>
    <rect id="Rect치ngulo_215" data-name="Rect치ngulo 215" width="26.77" height="2.997" rx="1.497" transform="translate(188.999 707.115) rotate(90)" fill="#fff"/>
    <rect id="Rect치ngulo_224" data-name="Rect치ngulo 224" width="26.77" height="2.997" rx="1.497" transform="translate(200.885 721.999) rotate(180)" fill="#fff"/>
  </g>
</svg>
