<svg xmlns="http://www.w3.org/2000/svg" width="99.103" height="404.483" viewBox="0 0 99.103 404.483"><defs><style>.a{fill:#f6f6f6;}</style></defs><g transform="translate(-185.936 -467.103)"><path class="a" d="M1771.6,1801.547l-.326-8.8H1757.39c.05.609.075,1.226.1,1.861s.034,1.226.034,1.786q0,5.672-1.077,6.785c-.718.735-2.529,1.11-5.442,1.11h-37.558V1792.75H1700.21v11.542H1680.4v18.379h19.814v9.915h13.237v-9.915H1757.2q6.648,0,9.84-3.13Q1772.059,1814.721,1771.6,1801.547Z" transform="translate(-1488 -961)"/><path class="a" d="M1699.559,1761.718v18.838h71.068v-18.838Zm-25.623,0v18.838h17.152v-18.838Z" transform="translate(-1488 -961)"/><path class="a" d="M1718.73,1662.549a14.869,14.869,0,0,1,6.652-1.3h45.245v-19.038l-44.794-.134a63.975,63.975,0,0,0-10.491.651,20.8,20.8,0,0,0-15.516,12.328,24.668,24.668,0,0,0-1.828,9.256,27.669,27.669,0,0,0,2.93,12.778,23.652,23.652,0,0,0,9.2,9.064,20.884,20.884,0,0,0-8.546,6.126q-3.58,5.021-3.581,13.17,0,8.613,4.173,14.022a29.722,29.722,0,0,0,7.888,6.518h-10.366v18.061h70.934V1725.2h-42.766q-5.809,0-8.739-1.5-5.157-2.729-5.149-10.691c0-4.557,1.711-7.629,5.149-9.19q2.868-1.3,9.19-1.3h42.315v-18.713h-42.315a20.011,20.011,0,0,1-8.146-1.5q-6.385-2.93-6.393-10.625Q1713.773,1665.031,1718.73,1662.549Z" transform="translate(-1488 -961)"/><path class="a" d="M1769,1600.377q3.517-5.37,3.513-14.213,0-14.1-10.883-21.959t-27.451-7.862q-15.961,0-26.073,7.971T1698,1586.4q0,7.812,3.255,12.861a27.275,27.275,0,0,0,7.57,7.812h-34.169v18.579h95.973v-18.32h-8.93A28.483,28.483,0,0,0,1769,1600.377Zm-17.8,3.139q-6,4.068-15.123,4.073a34.377,34.377,0,0,1-12.653-1.97q-9.189-3.819-9.189-14.005,0-10.053,9.389-13.805a34.259,34.259,0,0,1,12.519-1.969q9.453,0,15.257,4.006a12.911,12.911,0,0,1,5.8,11.242Q1757.2,1599.439,1751.2,1603.516Z" transform="translate(-1488 -961)"/><path class="a" d="M1762.673,1486.427q-6.522-6.135-12.845-6.886v18.971a14.432,14.432,0,0,1,8.154,14.139,18.839,18.839,0,0,1-2.679,10.249q-4.295,7-14.989,7.428v-51.755a90.717,90.717,0,0,0-14.1.609,34.969,34.969,0,0,0-14.7,5.667A28.921,28.921,0,0,0,1701,1497.126a40.445,40.445,0,0,0-3.33,16.71q0,15.624,9.856,25.414t28.311,9.79q19.718,0,28.461-10.842a38.751,38.751,0,0,0,8.738-25.03Q1773.039,1495.979,1762.673,1486.427Zm-34.62,43.45a19.325,19.325,0,0,1-11-4.949q-4.056-3.944-4.057-11.092a16.289,16.289,0,0,1,3.831-11.026q3.819-4.443,11.226-4.949Z" transform="translate(-1488 -961)"/><path class="a" d="M1736.658,1450.663q-8.538,0-12.645-2.153-7.311-3.843-7.3-15.065c0-.559.017-1.3.067-2.212s.126-1.961.259-3.13H1698c-.05.827-.075,1.361-.1,1.595s-.033.534-.033.884q0,8.338,4.373,13.555,2.6,3.2,9.715,7.5h-12.394v17.735h71.068v-18.712Z" transform="translate(-1488 -961)"/></g></svg>