<svg xmlns="http://www.w3.org/2000/svg" width="61.562" height="743.261" viewBox="0 0 61.562 743.261"><defs><style>.a{fill:#f6f6f6;}</style></defs><g transform="translate(-0.433 -124.219)"><path class="a" d="M1541.29,1758.989a27.584,27.584,0,0,0-21.876-10.182q-12.832,0-19.622,8.588-4.368,5.546-6.977,16.626l-3.973,16.867c-.133.593-.275,1.16-.409,1.711v32.851a20.95,20.95,0,0,0,10.967-8.254q3.981-5.734,7.37-21.075l2.278-10.4q1.953-9.14,4.5-13.346a8.224,8.224,0,0,1,7.369-4.206q8.151,0,11.151,8.588a36.78,36.78,0,0,1,1.561,11.785q0,12.107-5.934,17.1-3.255,2.73-9.841,3.664v19.172q14.986,0,23.562-10.876t8.58-29.854Q1549.995,1769.171,1541.29,1758.989Z" transform="translate(-1488 -961)"/><path class="a" d="M1547.65,1702.969a25.862,25.862,0,0,0-5.35-8.421,13,13,0,0,0-2.871-2.471c-1.086-.692-1.737-1.126-1.954-1.293h10.041v-18.061h-59.083v18.837h26.683a28,28,0,0,1,11.017,1.819q7.7,3.505,7.695,12.979,0,7.386-5.417,9.923-3.054,1.428-9.122,1.428h-30.856v19.037h30.856q12.194,0,18.445-3.054,11.343-5.459,11.351-21.2A28.771,28.771,0,0,0,1547.65,1702.969Z" transform="translate(-1488 -961)"/><path class="a" d="M1543.243,1601.963a21.559,21.559,0,0,0-17.244-7.87,17.925,17.925,0,0,0-13.362,5.475q-5.283,5.546-7.887,16.651-3.656,16.65-5.15,19.4a4.85,4.85,0,0,1-4.632,2.746,5.441,5.441,0,0,1-4.432-2.579c-1.26-1.727-1.894-4.607-1.894-8.663q0-7.386,3.781-10.466a11,11,0,0,1,5.675-2.02v-18.587a31.189,31.189,0,0,0-9.665,2.354v56.194a21.505,21.505,0,0,0,9.991,2.346q8.337,0,12.778-4.949,4.494-4.957,7.494-17.068,3.982-16.827,5.609-19.439a5.27,5.27,0,0,1,4.758-2.612,5.212,5.212,0,0,1,4.89,3.238,19.564,19.564,0,0,1,1.636,8.747q0,9.364-3.722,12.845c-1.386,1.3-3.731,2.161-7.036,2.554v18.837a22.957,22.957,0,0,0,18.02-8q7.085-8,7.077-24.788Q1549.928,1609.839,1543.243,1601.963Z" transform="translate(-1488 -961)"/><path class="a" d="M1548.492,1556.669l-.325-8.8h-13.888c.05.609.075,1.226.1,1.852s.033,1.227.033,1.8q0,5.672-1.076,6.777t-5.442,1.11h-37.558v-11.534h-1.9v39.836h1.9v-9.915h43.751q6.648,0,9.84-3.13Q1548.948,1569.843,1548.492,1556.669Z" transform="translate(-1488 -961)"/><path class="a" d="M1546.281,1504.763a38.3,38.3,0,0,0-7.111-8.922c1.611-.133,3.046-.3,4.307-.517a20.506,20.506,0,0,0,4.039-1.177v-20.214h-2.738a6.629,6.629,0,0,1-2.153,2.737c-.868.609-2.52.985-4.949,1.11q-4.833.138-8.221.133h-32.6a25.649,25.649,0,0,0-8.421,1.261v56.679a30.241,30.241,0,0,0,11.034,2.629v-17.928a13.5,13.5,0,0,1-6.518-2.645q-3.257-2.78-3.264-9.448,0-5.948,1.661-9.023t6.034-3.079c2.4,0,4.157,1.344,5.283,4.014a29.327,29.327,0,0,1,1.628,7.42l.784,6.368q1.365,10.842,4.566,16.417,5.859,10.191,18.971,10.183,10.1,0,15.616-6.327t5.508-16.033A27,27,0,0,0,1546.281,1504.763Zm-12.169,14.74c-1.4,1.786-3.7,2.679-6.869,2.679a8.49,8.49,0,0,1-7.9-4.39,27.9,27.9,0,0,1-2.538-8.538l-.784-4.232a31.059,31.059,0,0,0-1.269-4.991,21.336,21.336,0,0,0-1.794-3.6h6.91q9.315.2,12.845,5.333a19.437,19.437,0,0,1,3.522,11.217A10.171,10.171,0,0,1,1534.112,1519.5Z" transform="translate(-1488 -961)"/><path class="a" d="M1488.433,1442.576v18.837h59.083v-18.837Z" transform="translate(-1488 -961)"/><path class="a" d="M1495.686,1380.822q3-1.49,8.6-1.486h43.225V1360.3h-47.857a33.564,33.564,0,0,0-11.226,1.669v62.48h59.083v-18.579h-38.468a27.642,27.642,0,0,1-10.816-1.811q-8.025-3.493-8.021-12.878Q1490.211,1383.543,1495.686,1380.822Z" transform="translate(-1488 -961)"/><path class="a" d="M1546.281,1311.841a38.418,38.418,0,0,0-7.111-8.914q2.416-.2,4.307-.526a20.514,20.514,0,0,0,4.039-1.177v-20.206h-2.738a6.684,6.684,0,0,1-2.153,2.738q-1.3.914-4.949,1.11-4.833.125-8.221.125h-32.6a25.427,25.427,0,0,0-8.421,1.268v56.671a30.241,30.241,0,0,0,11.034,2.629v-17.927a13.425,13.425,0,0,1-6.518-2.646q-3.257-2.767-3.264-9.448,0-5.946,1.661-9.022t6.034-3.072q3.593,0,5.283,4.007a29.5,29.5,0,0,1,1.628,7.419l.784,6.377q1.365,10.828,4.566,16.417,5.859,10.178,18.971,10.182,10.1,0,15.616-6.326t5.508-16.033A27.049,27.049,0,0,0,1546.281,1311.841Zm-12.169,14.739c-1.4,1.786-3.7,2.679-6.869,2.679a8.489,8.489,0,0,1-7.9-4.39,27.9,27.9,0,0,1-2.538-8.538l-.784-4.232a31.173,31.173,0,0,0-1.269-4.982,21.049,21.049,0,0,0-1.794-3.606h6.91q9.315.2,12.845,5.325a19.444,19.444,0,0,1,3.522,11.226A10.146,10.146,0,0,1,1534.112,1326.58Z" transform="translate(-1488 -961)"/><path class="a" d="M1545.888,1244.144q3.519-5.37,3.523-14.222,0-14.084-10.892-21.95t-27.451-7.862q-13.371,0-22.635,5.6v63.7h59.083v-18.319h-8.931A28.306,28.306,0,0,0,1545.888,1244.144Zm-17.8,3.13q-6,4.081-15.123,4.082a34.194,34.194,0,0,1-12.653-1.978q-9.189-3.807-9.189-14,0-10.065,9.389-13.8a34.076,34.076,0,0,1,12.52-1.978q9.452,0,15.256,4.015a12.894,12.894,0,0,1,5.8,11.242Q1534.087,1243.206,1528.086,1247.274Z" transform="translate(-1488 -961)"/><path class="a" d="M1539.562,1093.095q-6.523-6.135-12.845-6.886v18.971a15.577,15.577,0,0,1,4.891,3.823,15.744,15.744,0,0,1,3.264,10.315,18.868,18.868,0,0,1-2.68,10.25q-4.293,7-14.989,7.428v-51.755a90.753,90.753,0,0,0-14.106.609,35.17,35.17,0,0,0-14.664,5.634v57.772q9.315,6.449,24.3,6.452,19.718,0,28.46-10.842a38.761,38.761,0,0,0,8.739-25.03Q1549.928,1102.647,1539.562,1093.095Zm-34.62,43.442a19.222,19.222,0,0,1-11-4.949q-4.057-3.931-4.056-11.093a16.281,16.281,0,0,1,3.83-11.017q3.831-4.445,11.226-4.949Z" transform="translate(-1488 -961)"/><path class="a" d="M1488.433,1168.227v18.579h59.083v-18.579Z" transform="translate(-1488 -962.824)"/></g></svg>