<svg xmlns="http://www.w3.org/2000/svg" width="60.599" height="54" viewBox="0 0 60.599 54"><defs><style>.a{fill:#83827e;}.b{fill:#84837f;}.c{fill:none;stroke:#707070;stroke-linecap:round;stroke-width:3px;}</style></defs><g transform="translate(-1271 -341)"><g transform="translate(1271 341)"><path class="a" d="M15.884,0A15.9,15.9,0,0,0,0,15.884V38.116a15.884,15.884,0,1,0,31.768,0V15.884A15.9,15.9,0,0,0,15.884,0ZM28.528,38.116a12.644,12.644,0,1,1-25.288,0V15.884a12.644,12.644,0,1,1,25.288,0Zm0,0"/><path class="b" d="M136.866,101.852a1.62,1.62,0,0,0-1.62,1.62v7.456a1.62,1.62,0,0,0,3.24,0v-7.456A1.62,1.62,0,0,0,136.866,101.852Zm0,0" transform="translate(-120.982 -91.109)"/><line class="c" y2="7.5" transform="translate(15.884 12.3)"/></g><g transform="translate(164 -56.63)"><path class="b" d="M1152.174,436.63c-.093-.043-.194-.077-.286-.13a1.636,1.636,0,0,1-.383-2.281h0a.851.851,0,0,1,.061-.077q1.465-1.838,2.94-3.663l3.237-4.034c.034-.042.06-.088.1-.143l-.137-.182q-3.045-3.795-6.1-7.594a1.665,1.665,0,0,1-.384-1.306,1.323,1.323,0,0,1,.879-1.2.616.616,0,0,0,.072-.038h.388a1.842,1.842,0,0,1,.846.7q2.97,3.711,5.948,7.413.447.56.894,1.11a1.72,1.72,0,0,1,0,2.21q-3.258,4.061-6.524,8.122c-.1.128-.212.25-.31.384a1.756,1.756,0,0,1-.857.713Z"/><path class="b" d="M1159.121,436.63c-.093-.043-.194-.077-.286-.13a1.636,1.636,0,0,1-.383-2.281h0a.836.836,0,0,1,.06-.077q1.466-1.838,2.94-3.663l3.237-4.034c.034-.042.06-.088.1-.143l-.138-.182q-3.045-3.795-6.1-7.594a1.661,1.661,0,0,1-.385-1.306,1.323,1.323,0,0,1,.879-1.2.608.608,0,0,0,.072-.038h.388a1.842,1.842,0,0,1,.846.7q2.97,3.711,5.948,7.413.447.56.894,1.11a1.72,1.72,0,0,1,0,2.21q-3.258,4.061-6.524,8.122c-.1.128-.212.25-.31.384a1.756,1.756,0,0,1-.857.713Z"/></g></g></svg>