<svg xmlns="http://www.w3.org/2000/svg" width="32" height="32" viewBox="0 0 32 32"><defs><style>.a{fill:#d0d0c6;}.b{fill:#fff;}</style></defs><rect class="a" width="32" height="32" rx="2.092"/><path class="b" d="M3109.752,1718.255c.087.04.182.071.267.119a1.486,1.486,0,0,1,.358,2.094h0c-.018.023-.036.047-.057.07q-1.368,1.688-2.746,3.364l-3.023,3.7c-.032.038-.057.081-.1.131l.128.167q2.845,3.487,5.7,6.974a1.508,1.508,0,0,1,.359,1.2,1.219,1.219,0,0,1-.821,1.1.526.526,0,0,0-.067.034h-.362a1.721,1.721,0,0,1-.79-.639q-2.775-3.409-5.557-6.809c-.278-.344-.555-.682-.835-1.02a1.56,1.56,0,0,1,0-2.029q3.045-3.729,6.095-7.458c.095-.118.2-.23.289-.355a1.645,1.645,0,0,1,.8-.655Z" transform="translate(-3090.247 -1711.738)"/></svg>