<svg xmlns="http://www.w3.org/2000/svg" width="22.747" height="19.061" viewBox="0 0 22.747 19.061"><defs><style>.a{fill:#fff;}</style></defs><g transform="translate(-148.869 -3490.452)"><path class="a" d="M148.869,3491.523c.047-.1.085-.214.143-.315a1.8,1.8,0,0,1,2.512-.422h0a.857.857,0,0,1,.085.066q2.023,1.614,4.035,3.239l4.443,3.565c.046.037.1.067.158.114l.2-.151q4.18-3.354,8.365-6.721a1.831,1.831,0,0,1,1.439-.423,1.458,1.458,0,0,1,1.325.968.6.6,0,0,0,.042.079v.428a2.039,2.039,0,0,1-.768.931q-4.089,3.271-8.166,6.552c-.411.329-.817.655-1.222.985a1.894,1.894,0,0,1-2.435,0q-4.471-3.59-8.946-7.187c-.141-.112-.275-.233-.423-.34a1.941,1.941,0,0,1-.786-.945Z"/><path class="a" d="M148.869,3500.174c.047-.1.085-.214.143-.315a1.8,1.8,0,0,1,2.512-.422h0a.9.9,0,0,1,.085.066q2.023,1.614,4.035,3.239l4.443,3.565c.046.037.1.067.158.114l.2-.151q4.18-3.356,8.365-6.721a1.83,1.83,0,0,1,1.439-.423,1.458,1.458,0,0,1,1.325.968.6.6,0,0,0,.042.079v.428a2.039,2.039,0,0,1-.768.931q-4.089,3.272-8.166,6.552c-.411.328-.817.655-1.222.985a1.894,1.894,0,0,1-2.435,0q-4.471-3.59-8.946-7.187c-.141-.112-.275-.233-.423-.34a1.94,1.94,0,0,1-.786-.945Z"/></g></svg>