<svg xmlns="http://www.w3.org/2000/svg" width="98.385" height="455.01" viewBox="0 0 98.385 455.01"><defs><style>.a{fill:#f6f6f6;}</style></defs><g transform="translate(-75.758 -414.097)"><path class="a" d="M1658.495,1794.1a38.384,38.384,0,0,0-7.11-8.914q2.415-.2,4.306-.526a21.006,21.006,0,0,0,4.04-1.169v-20.214h-2.738a6.676,6.676,0,0,1-2.153,2.737c-.868.61-2.521.977-4.949,1.111-3.222.083-5.96.133-8.221.133h-32.593q-12.844,0-17.476,9.1a45.288,45.288,0,0,0-4.632,20.824q0,18,9.389,25.406,6,4.645,15.324,5.242v-17.936a13.421,13.421,0,0,1-6.519-2.638q-3.255-2.78-3.263-9.456,0-5.947,1.661-9.014c1.118-2.053,3.121-3.08,6.034-3.08q3.593,0,5.283,4.006a29.514,29.514,0,0,1,1.628,7.42l.784,6.377q1.365,10.828,4.566,16.417,5.859,10.177,18.97,10.182,10.1,0,15.616-6.326t5.509-16.034A26.957,26.957,0,0,0,1658.495,1794.1Zm-12.16,14.739q-2.115,2.693-6.877,2.688a8.493,8.493,0,0,1-7.887-4.391c-1-1.727-1.853-4.582-2.546-8.546l-.785-4.223a30.984,30.984,0,0,0-1.268-4.991,21.248,21.248,0,0,0-1.8-3.606h6.911q9.327.2,12.845,5.333a19.437,19.437,0,0,1,3.522,11.217A10.187,10.187,0,0,1,1646.335,1808.841Z" transform="translate(-1488 -961)"/><path class="a" d="M1607.9,1707.268q3-1.489,8.6-1.494h43.225v-19.038h-47.857q-13.359,0-19.138,6.986-5.758,6.973-5.767,17.944,0,8.765,4.306,14.481a31.6,31.6,0,0,0,7.887,6.752H1588.8v17.994h70.935v-18.579h-38.468a27.664,27.664,0,0,1-10.817-1.819q-8.023-3.492-8.02-12.878Q1602.426,1709.981,1607.9,1707.268Z" transform="translate(-1488 -961)"/><path class="a" d="M1659.08,1631.91a26.245,26.245,0,0,0-9.189-9.064h9.84v-18.062h-95.973v18.846h33.91a22.458,22.458,0,0,0-7.853,8.146,22.794,22.794,0,0,0-2.846,11.476q0,14.022,10.432,22.393,10.442,8.388,28.628,8.38,15.774,0,25.848-8.505t10.074-20.966A25.436,25.436,0,0,0,1659.08,1631.91Zm-18.679,19.071q-5.9,3.881-15.741,3.872-9.126,0-15.29-3.814t-6.16-11.96a14.168,14.168,0,0,1,3.389-9.39q5.595-6.583,18.645-6.585,9.315,0,15.19,4.106t5.868,12Q1646.3,1647.1,1640.4,1650.981Z" transform="translate(-1488 -961)"/><path class="a" d="M1651.777,1530.9q-6.523-6.133-12.845-6.885v18.971a15.472,15.472,0,0,1,4.891,3.822,15.748,15.748,0,0,1,3.263,10.316,18.836,18.836,0,0,1-2.679,10.241q-4.293,7-14.99,7.436v-51.763a90.523,90.523,0,0,0-14.1.618,34.84,34.84,0,0,0-14.7,5.659,28.941,28.941,0,0,0-10.508,12.285,40.417,40.417,0,0,0-3.33,16.709q0,15.625,9.857,25.414t28.31,9.791q19.718,0,28.461-10.851a38.747,38.747,0,0,0,8.738-25.03Q1662.143,1540.439,1651.777,1530.9Zm-34.62,43.443q-6.936-1.016-11-4.95T1602.1,1558.3a16.279,16.279,0,0,1,3.831-11.017q3.831-4.445,11.226-4.949Z" transform="translate(-1488 -961)"/><path class="a" d="M1658.495,1482.462a38.447,38.447,0,0,0-7.11-8.922c1.61-.125,3.046-.3,4.306-.517a20.559,20.559,0,0,0,4.04-1.177V1451.64h-2.738a6.682,6.682,0,0,1-2.153,2.737c-.868.61-2.521.977-4.949,1.11q-4.833.126-8.221.126h-32.593q-12.844,0-17.476,9.1a45.265,45.265,0,0,0-4.632,20.824q0,18,9.389,25.406,6,4.644,15.324,5.233v-17.928a13.424,13.424,0,0,1-6.519-2.645q-3.255-2.768-3.263-9.448,0-5.948,1.661-9.023c1.118-2.044,3.121-3.071,6.034-3.071q3.593,0,5.283,4.006a29.427,29.427,0,0,1,1.628,7.42l.784,6.368q1.365,10.842,4.566,16.425,5.859,10.179,18.97,10.183,10.1,0,15.616-6.335t5.509-16.033A26.955,26.955,0,0,0,1658.495,1482.462Zm-12.16,14.74q-2.115,2.679-6.877,2.679a8.478,8.478,0,0,1-7.887-4.39q-1.5-2.592-2.546-8.539l-.785-4.231a31.472,31.472,0,0,0-1.268-4.991,20.918,20.918,0,0,0-1.8-3.6h6.911q9.327.2,12.845,5.325a19.444,19.444,0,0,1,3.522,11.225A10.187,10.187,0,0,1,1646.335,1497.2Z" transform="translate(-1488 -961)"/><path class="a" d="M1607.9,1395.62q3-1.49,8.6-1.486h43.225V1375.1h-47.857q-13.359,0-19.138,6.977-5.758,6.985-5.767,17.953,0,8.763,4.306,14.481a31.769,31.769,0,0,0,7.887,6.751H1588.8v17.995h70.935v-18.587h-38.468a27.673,27.673,0,0,1-10.817-1.811q-8.023-3.493-8.02-12.879Q1602.426,1398.34,1607.9,1395.62Z" transform="translate(-1488 -961)"/></g></svg>