<svg xmlns="http://www.w3.org/2000/svg" width="32" height="32" viewBox="0 0 32 32"><defs><style>.a{fill:#d0d0c6;}.b{fill:#fff;}</style></defs><rect class="a" width="32" height="32" rx="2.092" transform="translate(32 32) rotate(180)"/><path class="b" d="M3681.975,1737.221c-.088-.04-.182-.071-.267-.119a1.486,1.486,0,0,1-.358-2.094h0a.856.856,0,0,1,.057-.071q1.368-1.686,2.746-3.364l3.023-3.7c.032-.038.057-.081.1-.132l-.128-.167q-2.845-3.485-5.7-6.974a1.508,1.508,0,0,1-.36-1.2,1.218,1.218,0,0,1,.822-1.1c.023-.011.045-.022.067-.036h.362a1.715,1.715,0,0,1,.79.641q2.775,3.409,5.556,6.809c.279.342.556.68.835,1.018a1.56,1.56,0,0,1,0,2.031q-3.044,3.729-6.094,7.458c-.095.118-.2.23-.289.353a1.645,1.645,0,0,1-.8.655Z" transform="translate(-3669.48 -1711.738)"/></svg>