<svg xmlns="http://www.w3.org/2000/svg" width="16.397" height="20.651" viewBox="0 0 16.397 20.651">
  <g id="Grupo_361" data-name="Grupo 361" transform="translate(1167.599 436.63) rotate(180)">
    <path id="Flecha" d="M1152.174,436.63c-.093-.043-.194-.077-.286-.13a1.636,1.636,0,0,1-.383-2.281h0a.851.851,0,0,1,.061-.077q1.465-1.838,2.94-3.663l3.237-4.034c.034-.042.06-.088.1-.143l-.137-.182q-3.045-3.795-6.1-7.594a1.665,1.665,0,0,1-.384-1.306,1.323,1.323,0,0,1,.879-1.2.616.616,0,0,0,.072-.038h.388a1.842,1.842,0,0,1,.846.7q2.97,3.711,5.948,7.413.447.56.894,1.11a1.72,1.72,0,0,1,0,2.21q-3.258,4.061-6.524,8.122c-.1.128-.212.25-.31.384a1.756,1.756,0,0,1-.857.713Z" fill="#84837f"/>
    <path id="Flecha_2" data-name="Flecha 2" d="M1159.121,436.63c-.093-.043-.194-.077-.286-.13a1.636,1.636,0,0,1-.383-2.281h0a.836.836,0,0,1,.06-.077q1.466-1.838,2.94-3.663l3.237-4.034c.034-.042.06-.088.1-.143l-.138-.182q-3.045-3.795-6.1-7.594a1.661,1.661,0,0,1-.385-1.306,1.323,1.323,0,0,1,.879-1.2.608.608,0,0,0,.072-.038h.388a1.842,1.842,0,0,1,.846.7q2.97,3.711,5.948,7.413.447.56.894,1.11a1.72,1.72,0,0,1,0,2.21q-3.258,4.061-6.524,8.122c-.1.128-.212.25-.31.384a1.756,1.756,0,0,1-.857.713Z" fill="#84837f"/>
  </g>
</svg>
