<svg xmlns="http://www.w3.org/2000/svg" width="102.506" height="30.982" viewBox="0 0 102.506 30.982"><defs><style>.a,.b{fill:#fff;}.a{fill-rule:evenodd;}</style></defs><g transform="translate(-519.223 -1344.187)"><path d="M529.055,1344.187h92.673v20.837l-10.145,10.145H519.223v-21.149Z"/><path class="a" d="M706.681,1367.556v5.531h.766a2.927,2.927,0,0,0,1.957-.648,2.693,2.693,0,0,0,.766-2.162,3.188,3.188,0,0,0-.369-1.555,1.876,1.876,0,0,0-1.075-.921,4.017,4.017,0,0,0-1.334-.246Zm-1.95-1.691H707.8a4.2,4.2,0,0,1,3.161,1.234,4.476,4.476,0,0,1,1.2,3.253,4.353,4.353,0,0,1-1.238,3.246,4.46,4.46,0,0,1-3.284,1.221h-2.9Z" transform="translate(-133.811 -15.637)"/><path class="a" d="M823.027,1366.071h2.123v3.76h.03l3.271-3.76h2.6l-3.744,4.248,3.9,4.648h-2.551l-3.474-4.16h-.03v4.16h-2.123Z" transform="translate(-219.141 -15.786)"/><rect class="b" width="1.993" height="8.953" transform="translate(599.433 1350.228)"/><path class="a" d="M765.069,1365.865h2.172l1.724,5.066,1.768-5.066h2.1l1.213,8.953H772.2l-.82-5.864-1.944,5.864h-.883l-2.027-5.864-.744,5.864H763.9Z" transform="translate(-176.494 -15.637)"/><path class="a" d="M736.735,1365.9h5.88v1.773h-3.944v1.807h3.944v1.746h-3.944v1.855h3.944v1.773h-5.88Z" transform="translate(-156.896 -15.659)"/><path class="a" d="M674.187,1365.865h1.9v8.953h-1.875l-4.125-5.8v5.8h-1.929v-8.953h1.9l4.132,5.755Z" transform="translate(-107.427 -15.637)"/><path class="a" d="M638.975,1365.865h5.881v1.773h-3.944v1.807h3.944v1.746h-3.944v1.855h3.944v1.773h-5.881Z" transform="translate(-86.38 -15.637)"/><rect class="b" width="5.948" height="1.623" transform="translate(579.796 1360.965)"/></g></svg>