<svg xmlns="http://www.w3.org/2000/svg" width="24.343" height="24.343" viewBox="0 0 24.343 24.343">
  <g id="whatsapp" transform="translate(0 0)">
    <path id="Trazado_126" data-name="Trazado 126" d="M17.573,14.491l-.009.077c-2.211-1.121-2.443-1.271-2.728-.835-.2.3-.775.986-.949,1.189s-.351.215-.65.077a8.134,8.134,0,0,1-2.417-1.519A9.261,9.261,0,0,1,9.15,11.361c-.295-.518.322-.591.883-1.672a.571.571,0,0,0-.025-.536C9.932,9,9.332,7.5,9.081,6.9s-.49-.522-.676-.522a1.479,1.479,0,0,0-1.376.352C5.406,8.541,5.815,10.414,7.2,12.4c2.729,3.634,4.184,4.3,6.843,5.232a4.092,4.092,0,0,0,1.891.124A3.1,3.1,0,0,0,17.965,16.3a2.573,2.573,0,0,0,.181-1.458c-.074-.138-.272-.215-.573-.353Z" transform="translate(0.138 0.042)"/>
    <path id="Trazado_127" data-name="Trazado 127" d="M20.813,3.5C13.014-4.041.108,1.427.1,12.063a12.005,12.005,0,0,0,1.618,6.03L0,24.343l6.426-1.676a12.142,12.142,0,0,0,17.917-10.6A11.963,11.963,0,0,0,20.8,3.538Zm1.5,8.537A10.1,10.1,0,0,1,7.09,20.661l-.365-.217-3.8.989,1.019-3.7-.242-.38A10.06,10.06,0,0,1,19.366,4.946a9.928,9.928,0,0,1,2.951,7.09Z"/>
  </g>
</svg>
